<svg id="Capa_1" enable-background="new 0 0 512 512" height="512" viewBox="0 0 512 512" width="512" xmlns="http://www.w3.org/2000/svg"><g><path d="m251.063 450.938-13.772 33.951c-4.034 9.946.713 21.242 10.711 25.486 9.998 4.244 21.616-.105 26.211-9.813l28.385-59.964c-2.792.931-5.609-18.915-8.449-18.097-12.126 3.492-24.675 5.938-37.537 7.23-1.843.187-3.693 21.069-5.549 21.207z" fill="#756e78"/><path d="m302.599 440.599c-16.361 5.457-34.029 9.042-51.536 10.339l-6.446 15.891c3.438-.15 6.856-.385 10.252-.702 8.225-.767 14.136 7.748 10.602 15.214l-9.099 19.222c-2.002 4.229-5.338 7.439-9.291 9.367.307.149.604.311.922.446 9.998 4.244 21.616-.105 26.211-9.813l19.786-41.798z" fill="#665e66"/><path d="m485.252 84.031c-10.058 22.906-37.097 33.458-60.393 23.569s-34.028-36.475-23.97-59.381c4.491-10.227 14.368-22.55 26.001-32.178 14.42-11.937 31.538-19.731 44.432-14.257 23.296 9.889 23.988 59.341 13.93 82.247z" fill="#f9f6f9"/><path d="m471.322 1.784c-5.549-2.356-11.882-2.249-18.444-.417 22.043 11.126 22.542 59.148 12.671 81.629-6.434 14.653-19.82 24.238-34.728 26.663 21.775 5.952 45.221-4.652 54.431-25.627 10.058-22.907 9.366-72.359-13.93-82.248z" fill="#e2dfe2"/><path d="m331.803 146.345c-12.649-15.679-18.757-34.882-18.137-53.985 1.002-30.871-21.655-57.645-52.847-61.302-8.116-.952-16.371-1.457-24.74-1.492-115.842-.474-211.743 90.337-215.383 204.184-3.861 120.796 95.581 219.702 218.021 217.756 116.527-1.852 212.305-98.754 211.016-213.337-.01-.902-.026-1.803-.048-2.703-.748-31.104-25.682-55.981-57.261-57.942-22.974-1.427-45.22-12.088-60.621-31.179z" fill="#d8aa8b"/><path d="m449.686 235.466c-.748-31.104-25.682-55.981-57.261-57.942-22.975-1.427-45.221-12.088-60.622-31.179-12.649-15.679-18.757-34.882-18.137-53.985 1.002-30.871-21.655-57.645-52.847-61.302-8.116-.952-16.371-1.457-24.74-1.492-16.355-.067-32.311 1.688-47.667 5.068 3.099-.119 6.211-.186 9.341-.173 8.369.034 16.624.54 24.74 1.492 31.192 3.657 53.849 30.431 52.847 61.302-.62 19.104 5.488 38.306 18.137 53.985 15.401 19.091 37.647 29.752 60.622 31.179 31.579 1.962 56.513 26.839 57.261 57.942.022.899.037 1.8.048 2.703 1.127 100.231-72.018 186.931-168.355 208.318 114.557-4.152 207.954-100.054 206.681-213.213-.01-.902-.026-1.803-.048-2.703z" fill="#ce9875"/><path d="m396.44 92.544-59.709 147.2-20.669 50.955c5.208 7.119 12.914 13.238 22.426 17.101 8.5 3.451 17.226 4.611 25.192 3.768l23.99-50.679 67.824-143.277z" fill="#756e78"/><path d="m396.44 92.544-10.941 26.972 23.196 9.847c9.019 3.828 13.039 14.393 8.847 23.248l-59.88 126.496c-4.719 9.969-17.299 13.496-26.348 7.19-3.675-2.561-7.01-5.525-9.867-8.872l-5.384 13.274c5.208 7.119 12.914 13.238 22.426 17.101 8.499 3.451 17.427 4.59 25.192 3.768l23.99-50.679 67.824-143.277z" fill="#665e66"/><circle cx="227.33" cy="97.988" fill="#e28086" r="37.386"/><path d="m227.33 60.602c-2.628 0-5.192.274-7.667.79 16.97 3.537 29.719 18.576 29.719 36.596s-12.75 33.059-29.719 36.596c2.475.516 5.039.79 7.667.79 20.648 0 37.386-16.738 37.386-37.386.001-20.648-16.738-37.386-37.386-37.386z" fill="#dd636e"/><circle cx="120.92" cy="155.017" fill="#9bd069" r="37.386"/><path d="m120.92 117.63c-2.628 0-5.192.274-7.667.79 16.97 3.537 29.719 18.576 29.719 36.596s-12.75 33.059-29.719 36.596c2.475.516 5.039.79 7.667.79 20.648 0 37.386-16.738 37.386-37.386.001-20.647-16.738-37.386-37.386-37.386z" fill="#7dbe3b"/><circle cx="94.309" cy="266.961" fill="#8993da" r="37.386"/><path d="m94.309 229.575c-2.628 0-5.192.274-7.667.79 16.97 3.537 29.719 18.576 29.719 36.596s-12.75 33.059-29.719 36.596c2.475.516 5.039.79 7.667.79 20.648 0 37.386-16.738 37.386-37.386s-16.738-37.386-37.386-37.386z" fill="#707dd3"/><circle cx="170.118" cy="353.363" fill="#90d8f9" r="37.386"/><path d="m170.118 315.976c-2.628 0-5.192.274-7.667.79 16.97 3.537 29.719 18.576 29.719 36.596s-12.75 33.059-29.719 36.596c2.475.516 5.039.79 7.667.79 20.648 0 37.386-16.738 37.386-37.386 0-20.647-16.739-37.386-37.386-37.386z" fill="#75cef9"/><circle cx="284.757" cy="360.244" fill="#f9f6f9" r="37.386"/><path d="m284.757 322.857c-2.628 0-5.192.274-7.667.79 16.97 3.537 29.719 18.576 29.719 36.596s-12.75 33.059-29.719 36.596c2.475.516 5.039.79 7.667.79 20.648 0 37.386-16.738 37.386-37.386 0-20.647-16.738-37.386-37.386-37.386z" fill="#e2dfe2"/><path d="m458.998 134.667-77.586-32.936c-4.438-1.884-6.482-6.948-4.566-11.311l5.917-13.474c1.916-4.363 7.067-6.373 11.504-4.49l77.586 32.936c4.438 1.884 6.482 6.948 4.566 11.311l-5.917 13.474c-1.916 4.364-7.066 6.374-11.504 4.49z" fill="#ecbe6b"/><path d="m471.853 105.392-9.244-3.924c.267 2.246-.084 4.768-1.157 7.222l-7.938 18.156c-.727 1.662-1.708 3.104-2.834 4.289l8.319 3.531c4.438 1.884 9.588-.126 11.504-4.49l5.917-13.475c1.915-4.361-.13-9.425-4.567-11.309z" fill="#eab14d"/><g><path d="m358.692 319.584c-7.611 0-15.497-1.534-23.112-4.626-21.389-8.684-35.33-27.448-34.692-46.69.142-4.265 3.755-7.614 7.978-7.467 4.265.142 7.607 3.713 7.467 7.978-.417 12.599 9.887 25.7 25.061 31.861 12.132 4.926 25.432 4.558 34.709-.957 3.667-2.18 8.409-.975 10.589 2.692 2.181 3.668.976 8.408-2.692 10.589-7.398 4.399-16.154 6.62-25.308 6.62z" fill="#ce9875"/></g></g></svg>