<svg height="512" viewBox="0 0 512 512" width="512" xmlns="http://www.w3.org/2000/svg"><g id="flat"><path d="m104 24h48v32h-48z" fill="#f3af3e"/><path d="m96 24h16v72h-16z" fill="#cbcbcb"/><path d="m24 144 80-56 80 56z" fill="#b94137"/><path d="m184 192h304v296h-304z" fill="#4799cf"/><path d="m24 456h160v32h-160z" fill="#cbcbcb"/><path d="m24 472h160v16h-160z" fill="#c3c3c3"/><path d="m272 456h160v32h-160z" fill="#985713"/><path d="m467.578 384.845-9.467-4.734a8 8 0 0 0 -13.714-8.239l-.64 1.062-7.424-3.712 2.822-5.644a8 8 0 1 0 -14.31-7.156l-2.823 5.645-1.35-.675-4.049-3.9 6.033-9.049a8 8 0 0 0 -13.312-8.876l-4.426 6.639-11.365-10.96c-.041-.039-.086-.072-.127-.11-.086-.079-.176-.154-.265-.23-.152-.129-.308-.252-.47-.369-.1-.069-.192-.138-.291-.2-.176-.116-.357-.223-.542-.324-.091-.051-.18-.1-.274-.151a7.677 7.677 0 0 0 -.867-.378l-36-13a7.99 7.99 0 0 0 -.827-.244c-.082-.02-.165-.037-.247-.054-.216-.046-.434-.082-.652-.109-.072-.009-.143-.021-.214-.028-.258-.025-.517-.041-.777-.041h-16a8 8 0 0 0 -16 0h-14.7l-22.768-7.59-.04-.011c-.189-.062-.381-.112-.574-.159-.068-.017-.136-.039-.2-.054-.17-.037-.34-.062-.511-.087-.094-.015-.188-.035-.281-.046-.117-.013-.234-.016-.352-.024-.146-.011-.292-.026-.437-.028h-.05-.081a24 24 0 0 0 -24-24 40 40 0 0 0 -40 40l32-3 19.878-3.106-14.912 17.5-23.85 2.65a8 8 0 0 0 .868 15.947 8.186 8.186 0 0 0 .894-.05l27-3a8 8 0 0 0 5.206-2.763l19.5-22.892 13.41 4.472v8.526l-4.885 2.714a8 8 0 1 0 7.77 13.986l9-5a8 8 0 0 0 4.115-6.993v-11h8v5a8 8 0 0 0 16 0v-5h8v22.7l-7.59 22.77a8.006 8.006 0 0 0 0 5.06l6.437 19.309-12.5 12.5a8 8 0 0 0 11.314 11.314l16-16a8 8 0 0 0 1.933-8.187l-7.161-21.466 5.333-16h4.467l6.177 18.53a8.025 8.025 0 0 0 1.933 3.127l11.923 11.923-5.421 10.842a8 8 0 1 0 14.31 7.156l8-16a8 8 0 0 0 -1.5-9.235l-14.665-14.664-5.79-17.379 10.761-10.223 7.94 7.657-2.555 3.832a8 8 0 1 0 13.312 8.876l.948-1.421 2.843 2.742a8 8 0 0 0 1.975 1.4l2.444 1.222-1.212 2.425a8 8 0 1 0 14.311 7.156l1.212-2.425 6.3 3.149-2.1 3.484a8 8 0 1 0 13.705 8.256l2.749-4.563 10.592 5.3a8 8 0 0 0 7.156-14.31zm-94.478-40.721-8.294 7.876h-4.806v-12.6l.018.006z" fill="#cdcdcd"/><circle cx="256.291" cy="305.709" fill="#a8a8a8" r="5.291"/><path d="m288 424h128v32h-128z" fill="#985713"/><path d="m288 440h128v16h-128z" fill="#834b10"/><path d="m272 472h160v16h-160z" fill="#834b10"/><path d="m104 88h312l72 56h-304z" fill="#dc4d41"/><path d="m184 144h304v48h-304z" fill="#cbcbcb"/><path d="m184 144h304v16h-304z" fill="#a8a8a8"/><path d="m296 272h16v24h-16z" fill="#6cbae5"/><path d="m408 288h16v32h-16z" fill="#6cbae5"/><path d="m24 112h16v40h-16z" fill="#cbcbcb"/><path d="m168 112h16v48h-16z" fill="#cbcbcb"/><path d="m24 144h160v312h-160z" fill="#d9d9d9"/><path d="m88 192v32h-32v-32a16 16 0 1 1 32 0z" fill="#744630"/><path d="m152 192v32h-32v-32a16 16 0 1 1 32 0z" fill="#744630"/><path d="m80 192v32h-24v-32a16.012 16.012 0 0 1 12-15.5 15.987 15.987 0 0 1 12 15.5z" fill="#8f563b"/><path d="m144 192v32h-24v-32a16.012 16.012 0 0 1 12-15.5 15.987 15.987 0 0 1 12 15.5z" fill="#8f563b"/><path d="m128 416v40h-48v-40a24 24 0 0 1 20-23.66 22.974 22.974 0 0 1 4-.34 24 24 0 0 1 24 24z" fill="#744630"/><path d="m120 416v40h-40v-40a24 24 0 0 1 20-23.66 23.993 23.993 0 0 1 20 23.66z" fill="#8f563b"/><path d="m24 248h160v16h-160z" fill="#cbcbcb"/><path d="m24 352h160v16h-160z" fill="#cbcbcb"/><path d="m184 192h304v16h-304z" fill="#428dc5"/><path d="m408 192h16v80h-16z" fill="#6cbae5"/><path d="m296 192h16v64h-16z" fill="#6cbae5"/><path d="m408 192h16v16h-16z" fill="#4799cf"/><path d="m296 192h16v16h-16z" fill="#4799cf"/><path d="m24 144h160v16h-160z" fill="#cbcbcb"/><path d="m88 296v32h-32v-32a16 16 0 1 1 32 0z" fill="#744630"/><path d="m152 296v32h-32v-32a16 16 0 1 1 32 0z" fill="#744630"/><g fill="#8f563b"><path d="m80 296v32h-24v-32a16.012 16.012 0 0 1 12-15.5 15.987 15.987 0 0 1 12 15.5z"/><path d="m144 296v32h-24v-32a16.012 16.012 0 0 1 12-15.5 15.987 15.987 0 0 1 12 15.5z"/></g></g></svg>